<svg xmlns="http://www.w3.org/2000/svg" width="24" height="24" viewBox="0 0 24 24" role="img" aria-label="GitHub">
  <circle cx="12" cy="12" r="10" fill="#222222"/>
  <path d="M12 6c-3.3 0-6 2.8-6 6.2 0 2.7 1.7 5 4.1 5.8v-2c-1.7.4-2.1-.8-2.1-.8-.3-.8-.7-1- .7-1-.6-.4 0-.4 0-.4.7 0 1 .7 1 .7.6 1 1.6.8 2 .6.1-.5.3-.8.5-1-1.4-.2-2.9-.7-2.9-3.2 0-.7.2-1.3.7-1.8-.1-.2-.3-.9.1-1.8 0 0 .6-.2 1.9.7a6.3 6.3 0 0 1 3.4 0c1.3-.9 1.9-.7 1.9-.7.4.9.2 1.6.1 1.8.5.5.7 1.1.7 1.8 0 2.5-1.5 3-2.9 3.2.3.2.5.6.5 1.3V18A6.1 6.1 0 0 0 18 12.2C18 8.8 15.3 6 12 6z" fill="#ffffff"/>
</svg>
